<svg id="Layer_1" data-name="Layer 1" xmlns="http://www.w3.org/2000/svg" viewBox="0 0 446.56 643.9"><defs><style>.cls-1{fill:#3b54a5;}.cls-2{fill:#fff200;}</style></defs><path class="cls-1" d="M1484.75,619.58a122.83,122.83,0,0,1-44.43,11.74H1283V517.19l16.6-8.42h170.68V385.36l-53,0A332.61,332.61,0,0,1,1370,441.55c-29.41,27.91-57.35,44.07-78,55.83-9.46,5.39-22.64,11.92-45.33,22.9q5.13,13.58,10.27,27.14a4.49,4.49,0,0,1-1.7,5.11,4.55,4.55,0,0,1-6.13-1.53l-10.79-26.68-12.75,6.15c-20,9.66-32.78,15.83-49.87,23.4-24.89,11-49,20.74-72.17,29.32a3.51,3.51,0,0,1-6-3.06v-4.72q-2.71-6.09-5.41-12.18c29-10.38,59.73-22.62,91.83-37.1h0c12.85-5.14,29-11.6,47-19.94l-9.29-22.94a5.39,5.39,0,0,1,2.34-5.62,5.49,5.49,0,0,1,7.2,1.88q4.26,11.26,8.53,22.54c8.69-4.18,17.75-8.77,27-13.86a554.8,554.8,0,0,0,48.34-30c19.78-13.46,29.31-21.53,36.77-28.6a221.36,221.36,0,0,0,21.78-24.51,118.17,118.17,0,0,0,9.51-14.59c.79-1.42,1.47-2.74,2.07-3.93H1297.6q-.06-21.08-.13-42.13a656.05,656.05,0,0,0-28.81,68.47q-4.12,11.63-7.67,22.89l-28.58,14.56q6.43-19.83,14.46-40.86c9.94-25.87,20.57-49.65,31.32-71.32l88.73-184.34c-28.75.11-49.79.19-57.58.51a18.52,18.52,0,0,1-8.17-1.27c-4.33-1.8-6.2-4.73-9.19-7.75-4.89-4.93-9.92-7.21-14.94-9.49a55.84,55.84,0,0,0-20.42-4.72,61.52,61.52,0,0,0-29.94,5.3c-7.61,3.53-16.14,9.54-18.06,12.64a8.79,8.79,0,0,1-2.94,3,9.68,9.68,0,0,1-3.32,1.14c-4.6.66-103.83.64-108.25.64q.2,88,.38,176.05a256.89,256.89,0,0,1,73-68.17q2.82,9.25,5.62,18.51a185.05,185.05,0,0,0-19.92,13.4,191,191,0,0,0-45.06,49.92A214.11,214.11,0,0,0,1091.56,376,216.54,216.54,0,0,0,1076,444.43l21.45-8.43-5.81,42.64v63.13l-11.3,4.27a11.85,11.85,0,0,0-5.53,2.9,11.67,11.67,0,0,0-3.06,4.68,43.77,43.77,0,0,0-.6,8,44.7,44.7,0,0,0,1.28,10,77.27,77.27,0,0,0,8.42,24.25A17,17,0,0,0,1090,602a17.33,17.33,0,0,0,13-2v13.27h-8.93v129.7h35.65q-2.07-32.64-3.06-67.48-1-38.11-.51-73.71l23.32-10.38c-1,23.85-1.36,49.09-.85,75.57.52,26.67,1.88,52,3.82,76h365.2V596.43A122.77,122.77,0,0,1,1484.75,619.58ZM1172.92,509.53l-59.58,25.88V505.62l59.58-23.49Zm14-46.21a201.35,201.35,0,0,0-72,15.19c.47-6,1.17-12.34,2.17-19,1.08-7.28,2.39-14.1,3.83-20.43a138.24,138.24,0,0,1,52.34-5.74v13h18.25ZM1289.6,267.15a11.21,11.21,0,0,1-1.7,3.57q-12,21.91-23.92,43.83a7.25,7.25,0,0,1-2,2.81,7.39,7.39,0,0,1-3.41,1.62l-20.85.51a8.29,8.29,0,0,1-4.93-1.62,7.31,7.31,0,0,1-1.45-1.44A138.63,138.63,0,0,1,1207,281a239.11,239.11,0,0,0,75.32-38.81,72.49,72.49,0,0,1,5.28,12c.69,2.08,1.25,4.07,1.7,6A11.71,11.71,0,0,1,1289.6,267.15Zm-28.83-90.55a76.38,76.38,0,0,0,6.44-20.43,35.24,35.24,0,0,1,25.28,24.09,105,105,0,0,1-46,16.76A76.47,76.47,0,0,0,1260.77,176.6ZM1135.21,233l44.94-36a73.11,73.11,0,0,0,26.64,17.62,76.76,76.76,0,0,0,19.74,4.42,84.19,84.19,0,0,0,19.94-.34,95.06,95.06,0,0,0,29.43-6.55A93.06,93.06,0,0,0,1289,205.7L1314.45,191l10.72,22.21A172.17,172.17,0,0,1,1267,243.36,166.93,166.93,0,0,1,1135.21,233ZM1113,382.26a150.35,150.35,0,0,1,16.47-30.51A165,165,0,0,1,1177.21,305,271.53,271.53,0,0,1,1242.58,344l7.4,5.74-8.55,13.53a120.68,120.68,0,0,0-52-20.93,31,31,0,0,0-15.41-1.61,36.44,36.44,0,0,0-9.61,3.14,52.27,52.27,0,0,0-11.24,6.86,143.17,143.17,0,0,1,63.71,15.61q-.08,7.72-.13,15.45a168.86,168.86,0,0,0-44-7.54l-22.47.13-19.92,12,28.22-.64a179.69,179.69,0,0,1,20,1.79,177.07,177.07,0,0,1,22.21,4.72l-.51,20.94H1135l-31.53,6.51A150.79,150.79,0,0,1,1113,382.26Zm118.21,348.25a504.84,504.84,0,0,1-13-60.38,491.4,491.4,0,0,1-5.1-51.32c-.25-5.54-.37-10.2-.43-13.6l23-11.76a590.06,590.06,0,0,0,21.43,138.85Z" transform="translate(-1071.12 -99)"/><path class="cls-1" d="M1390.28,154.21l-52,109.62c49.73.6,72.28.55,83.23.34,1.64,0,6.28-.13,12.59,0q10.83-26.33,21.65-52.63c2.34,1.12,13.64,6.87,18.22,20.2a35,35,0,0,1,.59,20.43q-3.46,7.47-6.92,14.94a150.84,150.84,0,0,1,50,25V154.21Z" transform="translate(-1071.12 -99)"/><path class="cls-2" d="M1218.57,327.81c-23.56,2.72-44.43,10.85-64.53,22.24l37.2,5.41c0,.6,0,1.19,0,1.79-21.85,5.56-41.37,15.91-60,28.2,0,.5,0,1,0,1.5h45.37c-13.3,6.51-26.56,11.35-37.9,19-10.73,7.25-22.15,11.09-35.48,14.28,1.76-8.14,2.71-16.05,5.23-23.43A337.14,337.14,0,0,1,1122,363.67c2.6-5.59,6.52-10.69,10.47-15.51,6.56-8,13.13-16.09,20.61-23.18,7-6.64,15.13-12.09,22.88-17.92a3.85,3.85,0,0,1,3.32-.07c12.58,6.29,25.1,12.69,37.61,19.09C1217.47,326.36,1217.82,327,1218.57,327.81Z" transform="translate(-1071.12 -99)"/><path class="cls-2" d="M1180.19,197.93c14.89,15.17,33.29,20.25,53,21.34,19.3,1.06,37.93-2.91,56.19-9.14-13.22,11.82-28.6,19.67-45.22,26.34h5a7.73,7.73,0,0,1-5,11c-22.62,4.73-45.35,5-67.82-.28-12.11-2.86-23.82-7.43-35.68-11.3a41.79,41.79,0,0,1-5.19-2.68Z" transform="translate(-1071.12 -99)"/><path class="cls-2" d="M1225.58,99c-4.09,4.23-7.31,7.54-10.5,10.89-12.73,13.38-17.64,29.24-14.75,47.44,2.27,14.35,13.47,18.82,24.4,9.28,5-4.37,9-10.12,12.7-15.74,5.52-8.37,10-17.44,15.59-25.76,9.19-13.68,22.61-20.86,38.78-22.67a66,66,0,0,1,19.06,1,21.5,21.5,0,0,1-2.88,1.44c-22.17,7.6-38.84,21.47-50.55,42a198.66,198.66,0,0,1-21.89,31c-7.8,9.06-18.48,12.72-30.69,9.39-9.35-2.56-15.12-9-18.7-17.57-10.42-24.93-2.17-61.15,33.7-69.9C1221.39,99.42,1223,99.35,1225.58,99Z" transform="translate(-1071.12 -99)"/><path class="cls-2" d="M1136.06,669a90.45,90.45,0,0,0-5.18,14.68c-1.26,5-1.7,10.17-2.6,15.87a78.75,78.75,0,0,1-1-8.14c-.52-28.17-.92-56.34-1.49-84.51-.07-3.47,1-5.32,4.3-6.61,6.27-2.43,12.34-5.35,19.2-8.39l-.78,62.21C1146.67,655.1,1137.83,665.08,1136.06,669Z" transform="translate(-1071.12 -99)"/><path class="cls-2" d="M1113.34,535.41c0-4.28,0-8.18,0-11.64-.06-7.25-.1-10.88-.21-11.75-.18-1.33,0-2.68-.13-4-.08-1-.17-1.81.34-2.38.29-.32.58-.36,1.7-.75.69-.23,1.36-.53,2-.76,1-.33,2.58-.93,5.48-2.13l15.76-6.21,15.38-6.07a12.82,12.82,0,0,1-.83,13.71c-2.45,3.66-5.85,5.37-8.6,6.7a95.86,95.86,0,0,1-9.38,3.57c-3,1.05-5.09,1.71-6.07,3.69-.24.48-.33.86-.48,3.69-.31,6,0,6.28-.53,7.24-.75,1.45-2,1.76-6.74,3.75C1119.2,532.82,1116.55,534,1113.34,535.41Z" transform="translate(-1071.12 -99)"/><path class="cls-2" d="M1207.54,281.7l19.92-7.14c1.91,6.22,3.72,12.1,5.52,18,2.07,6.79,4.26,13.56,6.13,20.4.42,1.52-.3,3.35-.49,5-2.15-.43-5-.15-6.3-1.44a103.17,103.17,0,0,1-10.46-12.91C1217,296.69,1212.61,289.5,1207.54,281.7Z" transform="translate(-1071.12 -99)"/><path class="cls-2" d="M1115,476.62c.34-3.05.13-6.33,1.18-9.14,1-2.59,2.84-6,5.09-6.75,12.25-4.15,24.74-7.6,37.16-11.27.29-.09.66.1,1.65.27-1.24,4.95-2.4,9.89-3.8,14.77-.21.7-1.51,1.3-2.42,1.55C1141,469.59,1128.12,473.06,1115,476.62Z" transform="translate(-1071.12 -99)"/><path class="cls-2" d="M1234.57,515.45l-3.55-9.26-138.7,57.43,4.74,10.68,1.42-.6c15.5-6.5,120.52-49.54,125.72-53.52l.09.15Z" transform="translate(-1071.12 -99)"/><path class="cls-2" d="M1455.75,211.53l-21.65,52.63h12.22L1466,219a38.07,38.07,0,0,0-5-4.26A37.48,37.48,0,0,0,1455.75,211.53Z" transform="translate(-1071.12 -99)"/><path class="cls-2" d="M1239.8,502.05l3.32,8.85,58.56-31.79A344.19,344.19,0,0,0,1343.81,448c15.5-13.41,24.93-22.71,31.68-31.22A203.67,203.67,0,0,0,1387.34,400c3.17-5.09,5.7-9.69,7.65-13.52l-9.68.16c-1.34,2.67-2.89,5.5-4.67,8.42a115.27,115.27,0,0,1-6.91,10.1,220,220,0,0,1-58.55,53.11c-9.92,6.9-20.72,13.91-32.39,20.84C1267.81,488,1253.38,495.57,1239.8,502.05Z" transform="translate(-1071.12 -99)"/></svg>